<?xml version="1.0" encoding="UTF-8" standalone="no"?> <svg xmlns="http://www.w3.org/2000/svg" viewBox="0 0 64 64"><g id="Layer_4" data-name="Layer 4"><path d="M61.06,13.94l-11-11A1.5,1.5,0,0,0,49,2.5H4A1.5,1.5,0,0,0,2.5,4V60A1.5,1.5,0,0,0,4,61.5H60A1.5,1.5,0,0,0,61.5,60V15A1.5,1.5,0,0,0,61.06,13.94ZM42.94,5.5v5H21.06v-5Zm-27.12,53V53.42H48.18V58.5Zm42.68,0H51.18V51.92a1.5,1.5,0,0,0-1.5-1.5H14.32a1.5,1.5,0,0,0-1.5,1.5V58.5H5.5V5.5H18.06V12a1.5,1.5,0,0,0,1.5,1.5H44.44a1.5,1.5,0,0,0,1.5-1.5V5.5h2.44L58.5,15.62Z"/><path d="M32,15.61a1.5,1.5,0,0,0,0,3A13.41,13.41,0,0,1,45.39,32a1.5,1.5,0,0,0,3,0A16.41,16.41,0,0,0,32,15.61Z"/><path d="M32,21.61A10.4,10.4,0,0,0,21.61,32c.57,13.78,20.21,13.78,20.78,0A10.4,10.4,0,0,0,32,21.61Zm0,17.78A7.4,7.4,0,0,1,24.61,32C25,22.22,39,22.23,39.39,32A7.4,7.4,0,0,1,32,39.39Z"/></g></svg>