<svg version="1" xmlns="http://www.w3.org/2000/svg" viewBox="0 0 50 50"><path fill="#AFE55D" d="M40,42A18,18,0,0,0,22,24l-1,0a18,18,0,0,0,0,36l1,0A18,18,0,0,0,40,42ZM21.92,58a14.41,14.41,0,0,1-7.09-1.8,9.57,9.57,0,0,1-3.71-3.73l1.76-.94a7.6,7.6,0,0,0,3,2.94A12.45,12.45,0,0,0,22,56v2Zm0-4a11.65,11.65,0,0,1-5-1.11,6.6,6.6,0,0,1-2.74-2.37l1.7-1.06a4.63,4.63,0,0,0,1.93,1.63A9.74,9.74,0,0,0,22,52v2ZM22,48a6,6,0,1,1,6-6A6,6,0,0,1,22,48Zm6.15-13.47a4.63,4.63,0,0,0-1.93-1.63A9.66,9.66,0,0,0,22,32V30a11.94,11.94,0,0,1,5.12,1.11,6.6,6.6,0,0,1,2.74,2.37Zm3-2.06a7.6,7.6,0,0,0-3-2.94A12.46,12.46,0,0,0,22,28V26a14.57,14.57,0,0,1,7.18,1.8,9.57,9.57,0,0,1,3.71,3.73Z"/><circle cx="22" cy="42" r="4"/><path d="M53,4H22V22A20,20,0,0,1,42,42c0,.62,0,1.22-.09,1.83,0,.17,0,.34-.06.51q-.08.71-.22,1.41c0,.13,0,.27-.07.4q-.18.86-.44,1.7c0,.12-.08.24-.12.37q-.22.67-.48,1.31l-.19.46c-.22.5-.45,1-.71,1.47l0,.09c-.27.5-.58,1-.89,1.47l-.27.4Q38,54,37.6,54.48l-.26.33q-.55.65-1.14,1.26l-.26.25q-.5.48-1,.93l-.38.32c-.4.32-.81.63-1.24.93l-.15.1c-.47.32-1,.61-1.46.89l-.43.23-.55.29H60V11A7,7,0,0,0,53,4Zm3,50H43V52H56Zm0-8H44V44H56Zm0-7H44V37H56Zm0-7H43V30H56Zm0-8H36V22H56Zm0-8H24V6H56Z"/></svg>