<?xml version="1.0" encoding="utf-8"?>
<!-- Generator: Adobe Illustrator 18.1.1, SVG Export Plug-In . SVG Version: 6.00 Build 0)  -->
<svg version="1.1" id="Layer_1" xmlns="http://www.w3.org/2000/svg" xmlns:xlink="http://www.w3.org/1999/xlink" x="0px" y="0px"
	 viewBox="0 0 56.7 56.7" enable-background="new 0 0 56.7 56.7" xml:space="preserve">
<g>
	<path fill="none" stroke="#363431" stroke-linecap="round" stroke-linejoin="round" stroke-miterlimit="10" d="M25.2,41.1H6V9.2
		h19.1c1.8,0,3.2,1.4,3.2,3.2v31.9C28.3,42.5,26.9,41.1,25.2,41.1z"/>
	<path fill="none" stroke="#363431" stroke-linecap="round" stroke-linejoin="round" stroke-miterlimit="10" d="M28.3,47.5
		c1.8,0,3.2-1.4,3.2-3.2l0,0h22.3V12.4h-3.2v28.7H31.5c-1.8,0-3.2,1.4-3.2,3.2h0c0-1.8-1.4-3.2-3.2-3.2H6V12.4H2.8v31.9h22.3l0,0
		C25.2,46.1,26.6,47.5,28.3,47.5L28.3,47.5z"/>
	<path fill="none" stroke="#363431" stroke-linecap="round" stroke-linejoin="round" stroke-miterlimit="10" d="M31.5,41.1h19.1V9.2
		H31.5c-1.8,0-3.2,1.4-3.2,3.2v31.9C28.3,42.5,29.8,41.1,31.5,41.1z"/>
	<polygon fill="none" stroke="#363431" stroke-linecap="round" stroke-linejoin="round" stroke-miterlimit="10" points="45.9,41.1 
		45.9,36.3 50.7,36.3 	"/>
	
		<rect x="31.5" y="12.4" fill="none" stroke="#363431" stroke-linecap="round" stroke-linejoin="round" stroke-miterlimit="10" width="15.9" height="12.8"/>
	
		<rect x="9.2" y="12.4" fill="none" stroke="#363431" stroke-linecap="round" stroke-linejoin="round" stroke-miterlimit="10" width="15.9" height="6.4"/>
	
		<rect x="9.2" y="22" fill="none" stroke="#363431" stroke-linecap="round" stroke-linejoin="round" stroke-miterlimit="10" width="6.4" height="9.6"/>
	<path fill="none" stroke="#363431" stroke-linecap="round" stroke-linejoin="round" stroke-miterlimit="10" d="M31.5,28.3h15.9
		H31.5z"/>
	<path fill="none" stroke="#363431" stroke-linecap="round" stroke-linejoin="round" stroke-miterlimit="10" d="M18.8,22H22H18.8z"
		/>
	<path fill="none" stroke="#363431" stroke-linecap="round" stroke-linejoin="round" stroke-miterlimit="10" d="M18.8,25.2h6.4H18.8
		z"/>
	<path fill="none" stroke="#363431" stroke-linecap="round" stroke-linejoin="round" stroke-miterlimit="10" d="M18.8,28.3h6.4H18.8
		z"/>
	<path fill="none" stroke="#363431" stroke-linecap="round" stroke-linejoin="round" stroke-miterlimit="10" d="M18.8,31.5h6.4H18.8
		z"/>
	<path fill="none" stroke="#363431" stroke-linecap="round" stroke-linejoin="round" stroke-miterlimit="10" d="M9.2,34.7h15.9H9.2z
		"/>
	<path fill="none" stroke="#363431" stroke-linecap="round" stroke-linejoin="round" stroke-miterlimit="10" d="M9.2,37.9h15.9H9.2z
		"/>
	<path fill="none" stroke="#363431" stroke-linecap="round" stroke-linejoin="round" stroke-miterlimit="10" d="M31.5,31.5h15.9
		H31.5z"/>
	<path fill="none" stroke="#363431" stroke-linecap="round" stroke-linejoin="round" stroke-miterlimit="10" d="M31.5,34.7h11.2
		H31.5z"/>
	<path fill="none" stroke="#363431" stroke-linecap="round" stroke-linejoin="round" stroke-miterlimit="10" d="M31.5,37.9h11.2
		H31.5z"/>
	<polygon fill="none" stroke="#363431" stroke-linecap="round" stroke-linejoin="round" stroke-miterlimit="10" points="38.7,15.6 
		38.7,22 41.9,18.8 	"/>
</g>
</svg>
